<svg xmlns="http://www.w3.org/2000/svg" version="1.0" width="135.4054058512429" height="195.27026884916324" preserveAspectRatio="xMidYMid meet" style=""><rect id="backgroundrect" width="100%" height="100%" x="0" y="0" fill="none" stroke="none" class="" style=""/>
<metadata>
Created by potrace 1.15, written by Peter Selinger 2001-2017
</metadata>

<g class="currentLayer" style=""><title>Layer 1</title>










































<g class="" id="svg_1"><path d="M67.63405472375072,63.11054583872703 c-4.144998661658726,1.4251201773803066 -6.422290416483084,5.700480709521224 -5.324603023869904,9.975841241662142 c0.7536361203015871,2.9330961790269092 3.2930621778395412,5.302772753042999 6.274839871206686,5.899334687760337 c1.9987740581911637,0.3811367916249665 4.42351635829192,-0.06628465941303784 5.979938780653892,-1.1434103748748972 l0.7208693324623878,-0.4805637807445224 l0.34405127231159427,1.1931238694346749 c0.39320145407039314,1.3588355179672684 1.392588483165976,2.9662385087334275 2.3755921183419573,3.811367916249656 c1.0813039986935806,0.9445563966357846 2.8507105420103485,1.7565434744454937 4.276065813015523,1.9553974526846067 c5.619504114422699,0.811987077809709 10.41983853286541,-4.557070334646328 9.027250049699436,-10.075268230781699 c-0.7536361203015871,-2.9496673438801686 -3.0964614508043447,-5.352486247602776 -5.8980218110558935,-6.031904006586411 c-2.0151574521107634,-0.4971349455977813 -4.7511842366839145,-0.0828558242662971 -6.291223265126287,0.9611275614890438 c-0.40958484798999345,0.2817098025054095 -0.7864029081407855,0.46399261589126295 -0.8519364838191846,0.4308502861847444 c-0.04915018175879929,-0.04971349455977823 -0.14745054527639787,-0.36456562677170656 -0.1966007270351967,-0.7125600886901532 c-0.14745054527639787,-0.894842902076007 -0.9830036351759821,-2.518817057695425 -1.8021733311559678,-3.446802289477949 c-2.064307633869563,-2.3696765740160903 -5.6850376901010975,-3.3639464652116526 -8.634048595629043,-2.3365342443095716 zm4.9969351454779085,2.3365342443095716 c2.572192845377154,1.1931238694346749 4.046698298141127,4.308502861847437 3.2930621778395412,6.993031568075455 c-0.7536361203015871,2.6513863765214993 -3.030927875125945,4.441072180673511 -5.668654296181498,4.457643345526772 c-5.324603023869904,0.01657116485325946 -8.027863020603856,-6.396469633358118 -4.292449206935123,-10.174695219901254 c1.3598216953267754,-1.3754066828205278 2.6213430271359526,-1.8725416284183098 4.570966903568318,-1.7565434744454937 c0.8191696959799852,0.033142329706518925 1.4745054527639734,0.1822828133858535 2.0970744217087622,0.4805637807445224 zm13.188632105277762,5.26963042333648 c1.376205089246375,0.6462754292771162 2.19537478522636,1.4748336719400843 2.8998607237691476,2.8833826844671306 c0.5406519993467906,1.1268392100216373 0.6061855750251898,1.3754066828205278 0.5898021811055897,2.518817057695425 c-0.0163833939195998,3.032523168146465 -2.0151574521107634,5.4353420718690755 -4.947784963719111,5.9987616768798935 c-2.4738924818595556,0.46399261589126295 -5.259069448191505,-1.0439833857553404 -6.373140234724285,-3.446802289477949 c-0.3768180601507943,-0.811987077809709 -0.4423516358291925,-1.1599815397281565 -0.4423516358291925,-2.518817057695425 c0,-1.4085490125270468 0.04915018175879929,-1.6736876501791986 0.4587350297487915,-2.485674727988906 c0.4751184236683918,-0.927985231782525 1.3106715135679763,-1.9222551229780875 2.1298412095479615,-2.518817057695425 c1.4417386649247739,-1.0605545506085998 3.9647813285431286,-1.242837363994453 5.6850376901010975,-0.4308502861847444 z" id="svg_2" class=""/><path d="M50.43149110817103,67.30305054660164 c-2.0970744217087622,0.563419605010819 -4.144998661658726,2.1542514309237184 -5.111618902915108,3.9770795647822483 c-0.9174700594975836,1.7234011447389745 -1.2287545439699779,4.391358686113734 -0.7044859385427876,6.1313309957059685 c0.1310671513567981,0.44742145103800346 0.24575090879399586,0.811987077809709 0.24575090879399586,0.811987077809709 c0,0 -0.5406519993467906,-0.033142329706518925 -1.1796043622111787,-0.04971349455977823 c-2.2936751487439584,-0.11599815397281586 -4.45628314613112,0.7125600886901532 -6.0290889624126915,2.2868207497497943 c-5.160769084673907,5.170203434216924 -1.5891892102011729,14.068918960417205 5.6522709022618995,14.085490125270466 c4.570966903568318,0 8.109779990201854,-3.5793716083040246 8.109779990201854,-8.186155437510129 c0,-0.7622735832499312 -0.09830036351759838,-1.7234011447389745 -0.2293675148743962,-2.137680266070459 l-0.2293675148743962,-0.7788447481031914 l1.4417386649247739,0 c6.3239900529654856,0 10.141320836232216,-6.495896622477674 7.159543142865071,-12.163235002292378 c-1.6711061797991702,-3.198234816679059 -5.619504114422699,-4.921635961418033 -9.125550413217034,-3.9770795647822483 zm4.42351635829192,2.485674727988906 c0.4915018175879914,0.2319963079456313 1.277904725728777,0.7954159129564498 1.7530231493971686,1.2594085288477124 c3.030927875125945,3.0159520032932057 2.0970744217087622,7.9541591295644976 -1.851323512914767,9.77698726342303 c-1.212371150050378,0.5799907698640786 -3.4077459352767385,0.5468484401575596 -4.685650661005515,-0.06628465941303784 c-1.2942881196483769,-0.6131330995705978 -2.3264419365831577,-1.6239741556194187 -2.9653942994475466,-2.9330961790269092 c-0.4751184236683918,-0.9942698911955623 -0.5242686054271907,-1.2262661991411934 -0.5242686054271907,-2.5851017171084623 c0.0163833939195998,-1.2925508585542311 0.08191696959799857,-1.6239741556194187 0.4915018175879914,-2.4691035631356466 c0.7864029081407855,-1.657116485325937 2.3755921183419573,-2.9662385087334275 4.128615267739126,-3.4136599597714303 c0.9502368473367829,-0.2319963079456313 2.637726421055553,-0.033142329706518925 3.6534968440707343,0.4308502861847444 zm-9.109167019297436,11.052966957124 c1.2615213318091776,0.5799907698640786 2.2936751487439584,1.6239741556194187 2.932627511608347,2.9165250141736494 c0.4751184236683918,0.9776987263423027 0.5242686054271907,1.2262661991411934 0.5242686054271907,2.5851017171084623 c0,1.3588355179672684 -0.04915018175879929,1.6074029907661593 -0.5406519993467906,2.6016728819617216 c-1.0485372108543811,2.1708225957769782 -2.932627511608347,3.3308041355051334 -5.3573698117091055,3.3473753003583933 c-1.1468375743719796,0.01657116485325946 -1.458122058844374,-0.04971349455977823 -2.4083589061811566,-0.5137061104510405 c-1.343438301407176,-0.6462754292771162 -2.3264419365831577,-1.6405453204726772 -2.981777693367146,-3.032523168146465 c-1.163220968291579,-2.485674727988906 -0.34405127231159427,-5.56791139069515 1.900473694673566,-7.2415990408743465 c1.720256361557969,-1.2594085288477124 4.046698298141127,-1.5245471664998624 5.930788598895093,-0.6628465941303759 z" id="svg_3" class=""/><path d="M90.99677445309989,84.93476995046962 c-0.5406519993467906,0.16571164853259415 -1.4745054527639734,0.6462754292771162 -2.064307633869563,1.0605545506085998 c-4.210532237337124,2.9165250141736494 -4.734800842764314,8.981571350466579 -1.0649206047739808,12.62722761818364 l0.999387029095582,0.9942698911955623 l-0.6553357567839891,0.33142329706518797 c-0.999387029095582,0.4805637807445224 -2.6049596332163527,2.087966771510681 -3.1783784204023426,3.1650924869725396 c-0.8027863020603856,1.5576894962063816 -1.0649206047739808,2.7010998710812784 -0.9830036351759821,4.424501015820252 c0.09830036351759838,1.8393992987117906 0.4915018175879914,3.049094332999725 1.5072722406031729,4.47421451038003 c1.1304541804523798,1.6074029907661593 2.768793572412351,2.7010998710812784 4.718417448844715,3.1650924869725396 c5.0952355089955095,1.2096950342879345 9.961103503116622,-2.7176710359345373 9.961103503116622,-8.037014953830797 c0,-2.2205360903367555 -0.7700195142211866,-4.0599353890485474 -2.3755921183419573,-5.750194204081002 l-0.999387029095582,-1.0439833857553404 l0.9338534534171842,-0.5799907698640786 c3.555196480553136,-2.2205360903367555 4.882251388040713,-6.827319919542861 3.030927875125945,-10.58897434123274 c-1.458122058844374,-2.9993808384399463 -4.013931510301928,-4.590212664352846 -7.372527263819867,-4.557070334646328 c-0.9830036351759821,0 -1.8185567250755672,0.09942698911955648 -2.4575090879399557,0.3148521322119283 zm5.01331853939751,2.3531054091628305 c3.850097571105931,1.7896858041520125 4.652883873166315,6.993031568075455 1.5236556345227736,9.892985417395845 c-1.1959877561307786,1.0936968803151186 -2.391975512261557,1.5576894962063816 -4.046698298141127,1.5576894962063816 c-1.1304541804523798,0.01657116485325946 -1.376205089246375,-0.04971349455977823 -2.4902758757791554,-0.5965619347173369 c-1.392588483165976,-0.6959889238368945 -2.19537478522636,-1.5411183313531216 -2.8670939359299483,-2.9330961790269092 c-0.3768180601507943,-0.7954159129564498 -0.4259682419095929,-1.1268392100216373 -0.4259682419095929,-2.485674727988906 c0.0163833939195998,-1.2594085288477124 0.08191696959799857,-1.739972309592234 0.36043466623119397,-2.3531054091628305 c0.3768180601507943,-0.8285582426629685 1.4253552710051742,-2.0713956066574215 2.21175817914596,-2.63481521166824 c1.490888846683573,-1.0771257154618594 3.9647813285431286,-1.2594085288477124 5.734187871859897,-0.44742145103800346 zm-1.4745054527639734,14.416913422335654 c1.2942881196483769,0.6131330995705978 2.3264419365831577,1.6239741556194187 2.9653942994475466,2.9330961790269092 c0.4751184236683918,0.9776987263423027 0.5242686054271907,1.242837363994453 0.5242686054271907,2.5022458928421654 c-0.0163833939195998,1.8891127932715683 -0.5406519993467906,3.115378992412762 -1.900473694673566,4.374787521260475 c-2.3755921183419573,2.2205360903367555 -5.717804477940296,2.2205360903367555 -8.027863020603856,-0.01657116485325946 c-1.343438301407176,-1.2925508585542311 -1.8677069068343666,-2.518817057695425 -1.8677069068343666,-4.3582163564072145 c0.0163833939195998,-1.1599815397281565 0.08191696959799857,-1.5742606610596406 0.4423516358291925,-2.3531054091628305 c1.0813039986935806,-2.3365342443095716 3.1292282386435435,-3.6456562677170616 5.619504114422699,-3.5628004434507647 c1.0157704230151818,0.033142329706518925 1.5236556345227736,0.13256931882607553 2.2445249669851597,0.4805637807445224 z" id="svg_4" class=""/><path d="M40.14271972666241,96.71686816113703 c-2.572192845377154,0.5137061104510405 -5.062468721156309,2.6845287062280185 -5.963555386734292,5.236488093629962 c-0.4259682419095929,1.1765527045814153 -0.5570353932663906,3.2976618057986147 -0.3112844844723948,4.540499169793068 c0.5078852115075919,2.419390068575869 2.113457815628362,4.507356840086549 4.374366176533121,5.650767214961446 c1.1796043622111787,0.5799907698640786 1.5564224223619725,0.6959889238368945 2.7032599967339515,0.7622735832499312 c1.1304541804523798,0.06628465941303784 1.2942881196483769,0.11599815397281586 1.1959877561307786,0.3479944619184481 c-1.3106715135679763,2.9828096735866874 -1.1796043622111787,5.932477017466855 0.39320145407039314,8.401580580602502 c1.6219559980403706,2.5353882225486846 4.292449206935123,3.877652575662694 7.32337708206107,3.6622274325703223 c1.7530231493971686,-0.11599815397281586 2.8670939359299483,-0.5137061104510405 4.243299025176323,-1.5245471664998624 c1.277904725728777,-0.927985231782525 2.277291754824359,-2.2536784200432747 2.8998607237691476,-3.8445102459561746 c0.5242686054271907,-1.3422643531140093 0.5406519993467906,-4.142791213314843 0.0163833939195998,-5.55134022584189 c-1.1468375743719796,-3.1650924869725396 -4.1941488434175245,-5.4353420718690755 -7.29061029422187,-5.4353420718690755 c-0.7044859385427876,0 -0.7864029081407855,-0.033142329706518925 -0.688102544623189,-0.29828096735866994 c0.6389523628643886,-1.5245471664998624 0.7864029081407855,-2.10453793636394 0.8519364838191846,-3.3639464652116526 c0.11468375743719822,-1.739972309592234 -0.11468375743719822,-2.8170980250540936 -0.9174700594975836,-4.374787521260475 c-1.6383393919599705,-3.198234816679059 -5.259069448191505,-4.921635961418033 -8.83064932266424,-4.20907587272788 zm2.6704932088947517,2.1542514309237184 c1.9496238764323648,0.36456562677170656 3.6043466623119347,1.6736876501791986 4.45628314613112,3.5462292785975054 c0.3768180601507943,0.8451294075162287 0.4587350297487915,1.2096950342879345 0.4587350297487915,2.402818903722609 c0,1.2594085288477124 -0.04915018175879929,1.5245471664998624 -0.5242686054271907,2.5022458928421654 c-0.6389523628643886,1.3091220234074905 -1.6711061797991702,2.319963079456312 -2.9653942994475466,2.9330961790269092 c-0.8027863020603856,0.3811367916249665 -1.1468375743719796,0.44742145103800346 -2.4083589061811566,0.44742145103800346 c-1.2615213318091776,0 -1.6055726041207716,-0.06628465941303784 -2.4083589061811566,-0.44742145103800346 c-1.2942881196483769,-0.6131330995705978 -2.3264419365831577,-1.6239741556194187 -2.9490109055279468,-2.9330961790269092 c-0.4751184236683918,-0.9611275614890438 -0.5406519993467906,-1.242837363994453 -0.5406519993467906,-2.5022458928421654 c0,-1.1931238694346749 0.06553357567839914,-1.5576894962063816 0.4587350297487915,-2.402818903722609 c0.8191696959799852,-1.7565434744454937 2.3264419365831577,-3.049094332999725 4.128615267739126,-3.4965157840377277 c1.0649206047739808,-0.2651386376521503 1.1468375743719796,-0.2651386376521503 2.2936751487439584,-0.04971349455977823 zm8.257230535478252,12.560942958770603 c1.7530231493971686,0.5468484401575596 2.9653942994475466,1.6902588150324562 3.817330783266732,3.5793716083040246 c0.5734187871859895,1.2925508585542311 0.5078852115075919,3.1485213221192807 -0.14745054527639787,4.557070334646328 c-0.6225689689447885,1.3754066828205278 -1.6383393919599705,2.402818903722609 -2.9981610872867464,3.049094332999725 c-0.9174700594975836,0.4308502861847444 -1.2451379378895777,0.4971349455977813 -2.3755921183419573,0.4971349455977813 c-2.4083589061811566,0 -4.308832600854722,-1.1931238694346749 -5.3573698117091055,-3.3473753003583933 c-0.4915018175879914,-0.9942698911955623 -0.5406519993467906,-1.242837363994453 -0.5406519993467906,-2.6016728819617216 c0,-1.2594085288477124 0.06553357567839914,-1.6239741556194187 0.4259682419095929,-2.419390068575869 c1.3270549074875766,-2.866811519613872 4.276065813015523,-4.22564703758114 7.17592653678467,-3.314232970651874 z" id="svg_5" class=""/><path d="M78.05389325661612,113.1223213658638 c-2.1462246034675614,0.5137061104510405 -4.226915631256724,2.237107255190015 -5.259069448191505,4.3416451915539565 l-0.6061855750251898,1.2594085288477124 l-0.8519364838191846,-0.6794177589836344 c-3.2930621778395412,-2.6513863765214993 -7.71657853613146,-2.5353882225486846 -10.698356229498607,0.2651386376521503 c-3.4405127231159383,3.2313771463855776 -3.555196480553136,8.501007569722058 -0.27851769663319514,11.831811705227192 c2.2936751487439584,2.319963079456312 5.6850376901010975,3.049094332999725 8.78149914090544,1.85597046356505 c1.8185567250755672,-0.6959889238368945 3.8664809650255307,-2.7508133656410556 4.50543332788992,-4.507356840086549 l0.2621343027135953,-0.7788447481031914 l0.9174700594975836,0.7291312535434138 c1.6711061797991702,1.3091220234074905 3.32582896567874,1.9056839581248282 5.259069448191505,1.9056839581248282 c3.1292282386435435,0 5.963555386734292,-1.8393992987117906 7.32337708206107,-4.739353148032181 c0.5570353932663906,-1.1931238694346749 0.6061855750251898,-1.4251201773803066 0.6717191507035898,-3.115378992412762 c0.06553357567839914,-1.5742606610596406 0.0163833939195998,-1.9885397823911244 -0.294901090552795,-2.89995384932039 c-0.8847032716583855,-2.667957541374759 -2.8670939359299483,-4.5736414994995895 -5.5539705387442995,-5.385628577309297 c-0.9666202412563832,-0.2817098025054095 -3.1292282386435435,-0.33142329706518797 -4.177765449497925,-0.0828558242662971 zm4.357982782613521,2.5022458928421654 c1.2942881196483769,0.5965619347173369 2.3264419365831577,1.6239741556194187 2.9653942994475466,2.9330961790269092 c0.4751184236683918,0.9776987263423027 0.5242686054271907,1.2262661991411934 0.5242686054271907,2.5851017171084623 c0,1.3588355179672684 -0.04915018175879929,1.6074029907661593 -0.5406519993467906,2.6016728819617216 c-1.0485372108543811,2.1708225957769782 -2.9162441176887475,3.3308041355051334 -5.3573698117091055,3.3473753003583933 c-1.720256361557969,0 -2.981777693367146,-0.5468484401575596 -4.177765449497925,-1.8228281338585317 c-2.5885762392967533,-2.767384530494315 -2.19537478522636,-6.827319919542861 0.8519364838191846,-9.097569504439395 c1.5400390284423722,-1.1268392100216373 3.9647813285431286,-1.3588355179672684 5.734187871859897,-0.5468484401575596 zm-15.351240102664924,2.8005268602008337 c1.9660072703519642,0.36456562677170656 3.571579874472736,1.5908318259129 4.45628314613112,3.4302311246246897 c0.39320145407039314,0.8285582426629685 0.4587350297487915,1.1434103748748972 0.4587350297487915,2.435961233429128 c0,1.2925508585542311 -0.06553357567839914,1.6239741556194187 -0.4751184236683918,2.518817057695425 c-0.5570353932663906,1.2262661991411934 -1.851323512914767,2.5353882225486846 -2.9981610872867464,3.0656654978529843 c-1.212371150050378,0.5302772753042999 -3.1456116325631434,0.5965619347173369 -4.357982782613521,0.13256931882607553 c-1.9168570885931664,-0.7291312535434138 -3.32582896567874,-2.319963079456312 -3.817330783266732,-4.291931696994177 c-0.8027863020603856,-3.2479483112388374 1.490888846683573,-6.744464095276566 4.800334418442713,-7.307883700287384 c0.4259682419095929,-0.06628465941303784 0.835553089899585,-0.13256931882607553 0.8847032716583855,-0.14914048367933502 c0.04915018175879929,0 0.5242686054271907,0.06628465941303784 1.0485372108543811,0.16571164853259415 z" id="svg_6" class=""/></g></g></svg>