<svg xmlns="http://www.w3.org/2000/svg" viewBox="0 0 251.08 86.99">
    <defs>
        <style>.cls-1{fill:#018582;}.cls-2{fill:#063837;}</style>
    </defs>
    <title>malachite-logo</title>
    <g id="Layer_2" data-name="Layer 2">
        <g id="Layer_1-2" data-name="Layer 1">
            <path class="cls-1"
                  d="M154.2,10.16,164.13,24,179.92,4.84,175.53,0l-11.4,13.83L155.9,2.37a2.23,2.23,0,0,0-3.54-.11c-6.64,8.13-32.9,40.17-33.32,40.69h8.37Z"/>
            <path class="cls-2"
                  d="M151,22.95l13.16,18.32,20.92-25.38,49.8,56.06h8.42L186.39,9.23a2.24,2.24,0,0,0-3.38.08l-18.88,22.9L154.2,18.39Z"/>
            <path class="cls-2"
                  d="M12.55,63,13,64.18q.23-.6.48-1.18c.17-.39.34-.76.53-1.11l7.09-13.27a1.81,1.81,0,0,1,.27-.4.86.86,0,0,1,.31-.22,1.42,1.42,0,0,1,.39-.08l.51,0h2.17A1.2,1.2,0,0,1,26,49.1V71.86H23.24a1.18,1.18,0,0,1-1.18-1.18V56.39q0-.43,0-.94c0-.34,0-.69.07-1L14.91,68a1.91,1.91,0,0,1-.65.72,1.68,1.68,0,0,1-.93.26h-.61a1.68,1.68,0,0,1-.93-.26,1.91,1.91,0,0,1-.65-.72L3.81,54.35q.07.55.09,1.07t0,1v14.3a1.18,1.18,0,0,1-1.18,1.18H0V49.1a1.2,1.2,0,0,1,1.2-1.2H3.36l.51,0a1.42,1.42,0,0,1,.39.08.92.92,0,0,1,.32.22,1.66,1.66,0,0,1,.28.4L12,61.92Q12.31,62.45,12.55,63Z"/>
            <path class="cls-2"
                  d="M53.54,71.86H50.09a1.5,1.5,0,0,1-1-.29,1.64,1.64,0,0,1-.54-.72L46.81,66H36.89L35.1,70.85a1.58,1.58,0,0,1-.52.7,1.47,1.47,0,0,1-1,.31H30.16L38.74,50a3.32,3.32,0,0,1,3.09-2.1h0A3.32,3.32,0,0,1,45,50ZM38,62.82h7.64l-2.92-8q-.2-.53-.44-1.25T41.84,52q-.23.85-.46,1.57t-.44,1.28Z"/>
            <path class="cls-2" d="M62.12,68.19h8.43a1.17,1.17,0,0,1,1.17,1.17v2.51H57.67v-24h4.46Z"/>
            <path class="cls-2"
                  d="M97.52,71.86H94.07a1.5,1.5,0,0,1-1-.29,1.64,1.64,0,0,1-.54-.72L90.79,66H80.87l-1.79,4.89a1.58,1.58,0,0,1-.52.7,1.47,1.47,0,0,1-1,.31H74.14L82.72,50a3.32,3.32,0,0,1,3.09-2.11h0A3.32,3.32,0,0,1,88.94,50ZM82,62.82h7.64l-2.92-8q-.2-.53-.44-1.25T85.82,52q-.23.85-.46,1.57t-.44,1.28Z"/>
            <path class="cls-2"
                  d="M117.27,66.21a.83.83,0,0,1,.63.28l1.76,1.91a9.65,9.65,0,0,1-3.59,2.77,12.37,12.37,0,0,1-5.11,1,12.08,12.08,0,0,1-4.8-.91,10.57,10.57,0,0,1-3.64-2.54,11.1,11.1,0,0,1-2.31-3.88,14.57,14.57,0,0,1-.8-4.92,13.24,13.24,0,0,1,.9-4.95,11.17,11.17,0,0,1,6.4-6.4,13.34,13.34,0,0,1,5-.9,11.81,11.81,0,0,1,4.66.85,10.92,10.92,0,0,1,3.42,2.26l-1.49,2.07a1.37,1.37,0,0,1-.34.35,1,1,0,0,1-.57.15,1.3,1.3,0,0,1-.78-.3,9.84,9.84,0,0,0-1-.65,8.29,8.29,0,0,0-1.55-.65,9,9,0,0,0-5.48.29,6.9,6.9,0,0,0-2.44,1.68,7.73,7.73,0,0,0-1.59,2.66,10.21,10.21,0,0,0-.57,3.52,10.5,10.5,0,0,0,.57,3.6,7.88,7.88,0,0,0,1.55,2.65,6.6,6.6,0,0,0,2.3,1.65,7.12,7.12,0,0,0,2.85.57,12.32,12.32,0,0,0,1.65-.1,7,7,0,0,0,1.36-.31,6,6,0,0,0,1.18-.56,7.37,7.37,0,0,0,1.1-.84,1.55,1.55,0,0,1,.35-.24A.88.88,0,0,1,117.27,66.21Z"/>
            <path class="cls-2"
                  d="M144.9,71.86h-3.31a1.18,1.18,0,0,1-1.18-1.18V61.39H129.17v9.29A1.18,1.18,0,0,1,128,71.86h-3.31v-24H128a1.18,1.18,0,0,1,1.18,1.18v9.13H140.4V49.08a1.18,1.18,0,0,1,1.18-1.18h3.31Z"/>
            <path class="cls-2" d="M156.41,71.86h-3.29a1.18,1.18,0,0,1-1.18-1.18V47.9h3.29a1.18,1.18,0,0,1,1.18,1.18Z"/>
            <path class="cls-2"
                  d="M180.34,47.9v2.48a1.18,1.18,0,0,1-1.18,1.18h-6v20.3h-4.46V51.57h-7.24V49.08a1.18,1.18,0,0,1,1.18-1.18Z"/>
            <path class="cls-2"
                  d="M199.94,47.9v2.37a1.18,1.18,0,0,1-1.18,1.18h-9.44v6.64h8.37v3.43h-8.37V68.3h9.44a1.18,1.18,0,0,1,1.18,1.18v2.38H184.83v-24Z"/>
            <path class="cls-2"
                  d="M91.9,78.35H93l3.25,7,3.25-7h1v8.4H99.45V81c0-.21,0-.69,0-.7s-.21.5-.29.7l-2.62,5.73h-.76L93.19,81c-.1-.21-.28-.66-.29-.7s0,.49,0,.7v5.73h-1Z"/>
            <path class="cls-2"
                  d="M107.89,78.35h.73l3.61,8.4h-1.15l-1-2.35h-3.7l-1,2.35h-1.09Zm1.81,5.14L108.22,80l-1.47,3.46Z"/>
            <path class="cls-2" d="M116,78.35h.64l5,6.26V78.35h1v8.4H122l-5-6.26v6.26h-1Z"/>
            <path class="cls-2"
                  d="M130,78.35h.73l3.61,8.4H133.2l-1-2.35h-3.7l-1,2.35h-1.09Zm1.81,5.14L130.34,80l-1.47,3.46Z"/>
            <path class="cls-2"
                  d="M137.13,82.55a4.27,4.27,0,0,1,4.47-4.38,5.13,5.13,0,0,1,2.91.88v1.16a4.2,4.2,0,0,0-2.91-1.11,3.2,3.2,0,0,0-3.31,3.45,3.25,3.25,0,0,0,3.31,3.5,4.37,4.37,0,0,0,2.14-.49V83.66H142v-.94h2.84v3.39a7.73,7.73,0,0,1-3.26.88A4.32,4.32,0,0,1,137.13,82.55Z"/>
            <path class="cls-2" d="M149.42,78.35h5.08v.94h-4v2.56h3.26v.94h-3.26v3h4v.94h-5.08Z"/>
            <path class="cls-2"
                  d="M158.8,78.35h1.09l3.25,7,3.25-7h1v8.4h-1.08V81c0-.21,0-.69,0-.7s-.21.5-.29.7l-2.62,5.73h-.76L160.09,81c-.1-.21-.28-.66-.29-.7s0,.49,0,.7v5.73h-1Z"/>
            <path class="cls-2" d="M172,78.35h5.08v.94h-4v2.56h3.26v.94h-3.26v3h4v.94H172Z"/>
            <path class="cls-2" d="M181.37,78.35H182l5,6.26V78.35h1v8.4h-.64l-5-6.26v6.26h-1Z"/>
            <path class="cls-2" d="M194.8,79.29h-3v-.94h7.09v.94h-3v7.47H194.8Z"/>
            <path class="cls-2"
                  d="M246.06,71.86h-.45V68.74h-1v-.42h2.45v.42h-1Zm4.57-2.93-1.21,2.93h-.13l-1.21-2.93v2.93h-.45V68.32h.69l1,2.58,1-2.58h.69v3.54h-.45Z"/>
        </g>
    </g>
</svg>